<?xml version="1.0" standalone="no"?>
<!DOCTYPE svg PUBLIC "-//W3C//DTD SVG 20010904//EN"
 "http://www.w3.org/TR/2001/REC-SVG-20010904/DTD/svg10.dtd">
<svg version="1.0" xmlns="http://www.w3.org/2000/svg"
 width="2000.000000pt" height="2000.000000pt" viewBox="0 0 2000.000000 2000.000000"
 preserveAspectRatio="xMidYMid meet">

<g transform="translate(0.000000,2000.000000) scale(0.100000,-0.100000)"
fill="#000000" stroke="none">
<path d="M11458 14613 c2 -1523 5 -2769 6 -2770 1 -1 573 2 1271 6 l1270 8
-1267 1 -1268 2 0 2088 c0 1149 3 2386 7 2750 l6 662 1594 0 1593 0 2 -2332
c2 -2074 3 -2204 9 -1168 3 641 7 1695 8 2343 l1 1177 -1618 0 -1619 0 5
-2767z"/>
<path d="M3700 17344 c-298 -38 -629 -178 -865 -367 -530 -426 -757 -1145
-568 -1802 152 -531 558 -959 1079 -1138 543 -188 1132 -93 1595 255 150 113
324 305 403 443 17 30 17 30 -1 5 -108 -146 -140 -186 -206 -256 -342 -363
-874 -570 -1352 -525 -550 52 -1010 326 -1300 776 -112 172 -201 397 -242 608
-26 132 -25 472 1 612 64 343 261 704 508 926 106 97 122 109 235 183 184 121
387 202 615 248 163 32 443 32 608 0 346 -69 624 -212 868 -446 224 -216 381
-479 467 -781 14 -50 23 -72 19 -50 -10 70 -81 268 -132 372 -167 331 -440
605 -763 766 -131 65 -283 118 -425 148 -78 17 -142 22 -304 24 -113 2 -221 1
-240 -1z"/>
<path d="M11646 17174 c-19 -19 -21 -64 -3 -87 6 -9 24 -19 39 -22 21 -5 33
-1 52 19 30 29 33 52 10 84 -18 26 -74 30 -98 6z"/>
<path d="M11874 17165 c-44 -67 44 -135 101 -79 20 20 19 68 -1 88 -25 26 -81
20 -100 -9z"/>
<path d="M12116 17174 c-51 -50 19 -139 79 -100 56 37 35 116 -30 116 -18 0
-41 -7 -49 -16z"/>
<path d="M11895 16869 c215 -3 746 -6 1180 -6 435 0 966 3 1180 6 223 4 -281
7 -1180 7 -899 0 -1403 -3 -1180 -7z"/>
<path d="M12043 16489 c44 -5 87 -4 100 1 15 6 -10 9 -78 8 l-100 -1 78 -8z"/>
<path d="M12193 16493 c9 -2 23 -2 30 0 6 3 -1 5 -18 5 -16 0 -22 -2 -12 -5z"/>
<path d="M3234 16421 c-112 -52 -121 -276 -14 -348 67 -46 159 -20 204 57 31
52 30 181 -2 231 -43 71 -116 94 -188 60z m125 -47 c64 -54 67 -198 6 -260
-35 -35 -102 -34 -138 4 -46 48 -56 154 -21 224 31 62 101 76 153 32z"/>
<path d="M3593 16420 c-57 -29 -83 -83 -83 -175 0 -121 55 -195 146 -195 54 0
103 33 132 90 20 38 23 56 19 116 -2 46 -11 83 -23 104 -43 73 -118 97 -191
60z m129 -47 c33 -35 48 -73 48 -122 0 -101 -40 -161 -107 -161 -76 0 -113 51
-113 155 0 102 38 155 110 155 26 0 43 -7 62 -27z"/>
<path d="M4153 16421 c-59 -28 -87 -83 -87 -176 0 -50 5 -82 19 -110 55 -110
196 -113 259 -5 28 47 29 169 2 223 -37 76 -117 104 -193 68z m125 -46 c55
-46 66 -168 21 -242 -22 -36 -37 -43 -87 -43 -58 1 -95 41 -107 118 -16 100
37 192 110 192 21 0 44 -9 63 -25z"/>
<path d="M3840 16415 c0 -11 12 -15 45 -15 l45 0 0 -175 c0 -168 1 -175 20
-175 19 0 20 7 20 190 l0 190 -65 0 c-51 0 -65 -3 -65 -15z"/>
<path d="M4400 16415 c0 -11 12 -15 45 -15 l45 0 0 -175 c0 -168 1 -175 20
-175 19 0 20 7 20 190 l0 190 -65 0 c-51 0 -65 -3 -65 -15z"/>
<path d="M5577 15945 c3 -27 7 -52 9 -54 7 -8 2 54 -6 79 -6 17 -7 9 -3 -25z"/>
<path d="M2860 15878 c-67 -34 -93 -89 -87 -189 6 -121 54 -179 149 -179 93 0
147 70 148 190 0 149 -100 234 -210 178z m103 -29 c39 -18 67 -78 67 -143 0
-101 -41 -161 -110 -161 -67 0 -110 60 -110 154 0 118 71 187 153 150z"/>
<path d="M3247 15893 c-39 -6 -94 -65 -108 -115 -16 -59 -6 -155 19 -197 60
-100 197 -95 254 9 27 50 22 196 -8 236 -41 55 -92 77 -157 67z m82 -48 c44
-22 64 -75 59 -159 -4 -84 -25 -120 -79 -137 -72 -22 -127 30 -136 128 -7 74
9 124 48 158 35 28 67 32 108 10z"/>
<path d="M3802 15890 c-71 -17 -112 -87 -112 -190 0 -121 55 -190 150 -190 94
0 150 72 150 191 0 135 -80 215 -188 189z m87 -45 c36 -18 61 -79 61 -146 0
-94 -43 -154 -110 -154 -69 0 -110 60 -110 160 0 119 74 184 159 140z"/>
<path d="M4545 15885 c-73 -26 -113 -107 -102 -210 11 -105 66 -165 150 -165
92 0 151 74 151 190 0 142 -89 224 -199 185z m89 -35 c76 -29 96 -202 31 -272
-31 -33 -76 -44 -112 -26 -35 16 -73 90 -73 141 0 120 69 190 154 157z"/>
<path d="M12080 15890 c0 -6 78 -10 226 -10 129 0 223 4 220 9 -8 13 -446 14
-446 1z"/>
<path d="M3470 15876 c0 -10 14 -16 43 -18 l42 -3 3 -172 c2 -165 3 -173 22
-173 19 0 20 7 20 190 l0 190 -65 0 c-50 0 -65 -3 -65 -14z"/>
<path d="M4020 15875 c0 -11 12 -15 45 -15 l45 0 0 -175 c0 -168 1 -175 20
-175 19 0 20 7 20 190 l0 190 -65 0 c-51 0 -65 -3 -65 -15z"/>
<path d="M4220 15875 c0 -11 12 -15 45 -15 l45 0 0 -175 c0 -168 1 -175 20
-175 19 0 20 7 20 190 l0 190 -65 0 c-51 0 -65 -3 -65 -15z"/>
<path d="M4780 15875 c0 -11 12 -15 45 -15 l45 0 0 -175 c0 -168 1 -175 20
-175 19 0 20 7 20 190 l0 190 -65 0 c-51 0 -65 -3 -65 -15z"/>
<path d="M5593 15845 c0 -22 2 -30 4 -17 2 12 2 30 0 40 -3 9 -5 -1 -4 -23z"/>
<path d="M5604 15655 c0 -77 2 -107 3 -67 2 40 2 103 0 140 -2 37 -3 4 -3 -73z"/>
<path d="M12088 15623 c6 -2 18 -2 25 0 6 3 1 5 -13 5 -14 0 -19 -2 -12 -5z"/>
<path d="M12213 15623 c20 -2 54 -2 75 0 20 2 3 4 -38 4 -41 0 -58 -2 -37 -4z"/>
<path d="M12588 15623 c139 -2 364 -2 500 0 136 1 22 2 -253 2 -275 0 -386 -1
-247 -2z"/>
<path d="M13443 15623 c48 -2 125 -2 170 0 45 1 6 3 -88 3 -93 0 -130 -2 -82
-3z"/>
<path d="M5592 15450 c0 -19 2 -27 5 -17 2 9 2 25 0 35 -3 9 -5 1 -5 -18z"/>
<path d="M5581 15374 c0 -11 3 -14 6 -6 3 7 2 16 -1 19 -3 4 -6 -2 -5 -13z"/>
<path d="M3225 15352 c-42 -26 -64 -63 -76 -126 -19 -105 22 -203 98 -232 81
-31 158 7 187 93 31 89 16 182 -38 240 -28 31 -40 37 -87 40 -41 3 -61 0 -84
-15z m110 -26 c48 -21 69 -66 70 -151 0 -52 -5 -78 -19 -102 -45 -73 -142 -70
-180 5 -47 95 -9 240 67 255 12 2 23 5 25 6 1 0 18 -5 37 -13z"/>
<path d="M3480 15350 c0 -17 7 -20 45 -20 l45 0 0 -170 c0 -163 1 -170 20
-170 19 0 20 7 20 190 l0 190 -65 0 c-58 0 -65 -2 -65 -20z"/>
<path d="M3680 15350 c0 -17 7 -20 45 -20 l45 0 0 -170 c0 -163 1 -170 20
-170 19 0 20 7 20 190 l0 190 -65 0 c-58 0 -65 -2 -65 -20z"/>
<path d="M3880 15350 c0 -17 7 -20 45 -20 l45 0 0 -170 c0 -144 2 -170 15
-170 13 0 15 28 15 190 l0 190 -60 0 c-53 0 -60 -2 -60 -20z"/>
<path d="M4172 15350 c-52 -32 -75 -95 -70 -191 2 -59 8 -84 24 -105 37 -50
72 -69 124 -69 85 0 138 59 147 165 7 79 -10 140 -53 181 -44 43 -121 51 -172
19z m139 -35 c21 -14 49 -90 49 -137 0 -96 -46 -158 -117 -158 -64 0 -103 60
-103 157 0 124 84 191 171 138z"/>
<path d="M4430 15350 c0 -17 7 -20 45 -20 l45 0 0 -170 c0 -163 1 -170 20
-170 19 0 20 7 20 190 l0 190 -65 0 c-58 0 -65 -2 -65 -20z"/>
<path d="M12243 15183 c31 -2 83 -2 115 0 31 2 5 3 -58 3 -63 0 -89 -1 -57 -3z"/>
<path d="M12460 15180 c33 -11 1114 -11 1165 -1 23 5 -225 9 -575 9 -338 0
-604 -4 -590 -8z"/>
<path d="M13743 15183 c37 -2 97 -2 135 0 37 2 6 3 -68 3 -74 0 -105 -1 -67
-3z"/>
<path d="M5486 15035 c-9 -26 -7 -32 5 -12 6 10 9 21 6 23 -2 3 -7 -2 -11 -11z"/>
<path d="M5456 14965 c-9 -26 -7 -32 5 -12 6 10 9 21 6 23 -2 3 -7 -2 -11 -11z"/>
<path d="M11988 14953 c23 -2 59 -2 80 0 20 2 1 4 -43 4 -44 0 -61 -2 -37 -4z"/>
<path d="M12530 14949 c57 -10 230 -10 295 1 33 5 -16 7 -145 7 -128 0 -180
-2 -150 -8z"/>
<path d="M13117 14947 c47 -6 105 -6 170 0 l98 10 -170 0 c-153 0 -163 -1 -98
-10z"/>
<path d="M5427 14895 c-9 -19 -15 -35 -12 -35 7 0 37 61 33 66 -3 2 -12 -12
-21 -31z"/>
<path d="M5380 14810 c-11 -22 -18 -40 -15 -40 2 0 14 18 25 40 11 22 18 40
15 40 -2 0 -14 -18 -25 -40z"/>
<path d="M12488 14683 c6 -2 18 -2 25 0 6 3 1 5 -13 5 -14 0 -19 -2 -12 -5z"/>
<path d="M12563 14683 c15 -2 39 -2 55 0 15 2 2 4 -28 4 -30 0 -43 -2 -27 -4z"/>
<path d="M13043 14683 c192 -2 502 -2 690 0 188 1 32 2 -348 2 -379 0 -533 -1
-342 -2z"/>
<path d="M14138 14683 c34 -2 90 -2 125 0 34 2 6 3 -63 3 -69 0 -97 -1 -62 -3z"/>
<path d="M11965 14670 c-14 -6 -2 -9 42 -9 34 -1 65 4 68 9 8 12 -81 12 -110
0z"/>
<path d="M11953 14373 c9 -2 25 -2 35 0 9 3 1 5 -18 5 -19 0 -27 -2 -17 -5z"/>
<path d="M12028 14373 c12 -2 30 -2 40 0 9 3 -1 5 -23 4 -22 0 -30 -2 -17 -4z"/>
<path d="M12568 14373 c7 -3 16 -2 19 1 4 3 -2 6 -13 5 -11 0 -14 -3 -6 -6z"/>
<path d="M12813 14373 c97 -2 257 -2 355 0 97 1 17 2 -178 2 -195 0 -275 -1
-177 -2z"/>
<path d="M13422 14373 c37 -2 100 -2 140 0 40 1 10 3 -67 3 -77 0 -110 -1 -73
-3z"/>
<path d="M13673 14373 c15 -2 37 -2 50 0 12 2 0 4 -28 4 -27 0 -38 -2 -22 -4z"/>
<path d="M13768 14373 c6 -2 18 -2 25 0 6 3 1 5 -13 5 -14 0 -19 -2 -12 -5z"/>
<path d="M5258 14313 c7 -3 16 -2 19 1 4 3 -2 6 -13 5 -11 0 -14 -3 -6 -6z"/>
<path d="M5401 14300 c99 -52 144 -171 100 -265 -61 -132 -234 -166 -328 -64
-87 94 -76 232 24 302 51 36 49 51 -2 16 -82 -56 -116 -162 -81 -253 22 -57
91 -121 148 -136 88 -24 206 31 248 116 25 49 26 132 4 177 -29 56 -109 128
-141 127 -4 -1 8 -10 28 -20z"/>
<path d="M12593 14053 c9 -2 25 -2 35 0 9 3 1 5 -18 5 -19 0 -27 -2 -17 -5z"/>
<path d="M12708 14053 c34 -2 88 -2 120 0 31 2 3 3 -63 3 -66 0 -92 -1 -57 -3z"/>
<path d="M13103 14053 c115 -2 299 -2 410 0 111 1 18 2 -208 2 -225 0 -316 -1
-202 -2z"/>
<path d="M13783 14053 c15 -2 39 -2 55 0 15 2 2 4 -28 4 -30 0 -43 -2 -27 -4z"/>
<path d="M11975 14040 c8 -13 85 -13 105 0 11 7 -4 10 -48 10 -40 0 -61 -4
-57 -10z"/>
<path d="M6410 13841 c-84 -17 -140 -73 -140 -139 0 -37 21 -84 47 -104 14
-10 18 -28 18 -73 0 -55 5 -67 58 -153 31 -51 57 -95 57 -97 0 -2 -19 5 -42
15 -48 22 -99 25 -129 10 -15 -9 -26 -7 -47 8 -41 29 -83 35 -131 18 -40 -13
-44 -13 -62 5 -10 10 -30 21 -45 25 -34 9 -100 -12 -117 -36 -13 -19 -15 -19
-47 -4 -39 20 -151 14 -199 -11 -50 -25 -79 -103 -49 -133 9 -9 7 -12 -11 -12
-12 0 -36 -13 -52 -29 -52 -52 -34 -119 61 -221 28 -30 55 -63 61 -72 9 -16 7
-16 -26 -2 -56 23 -236 29 -324 10 -70 -15 -76 -15 -94 1 -41 37 -210 6 -332
-62 -133 -73 -204 -168 -173 -232 8 -16 75 -75 166 -143 84 -63 151 -119 150
-125 -2 -5 -37 -21 -79 -35 -108 -38 -209 -102 -310 -197 -26 -25 -56 -39
-105 -52 -83 -21 -130 -44 -144 -70 -15 -30 -12 -97 6 -116 16 -16 15 -19 -11
-65 -18 -30 -19 -78 -2 -106 24 -42 73 -92 115 -118 23 -14 42 -30 42 -35 0
-5 22 -20 50 -33 l50 -24 -67 -64 c-86 -85 -123 -160 -123 -250 1 -43 7 -78
20 -105 11 -22 19 -44 20 -48 0 -5 8 -21 19 -35 12 -18 17 -38 14 -60 -4 -26
-13 -35 -48 -51 -56 -25 -122 -91 -148 -150 -32 -70 -29 -170 6 -243 15 -31
45 -72 66 -91 62 -56 160 -62 200 -11 18 23 20 24 26 5 8 -27 89 -99 120 -107
19 -5 24 -11 19 -23 -18 -44 -26 -95 -20 -135 8 -51 59 -133 92 -148 l23 -11
-30 -36 c-35 -45 -49 -88 -49 -157 0 -65 42 -151 87 -179 31 -19 32 -22 26
-66 -14 -113 67 -209 174 -209 51 1 114 31 144 69 l25 32 29 -60 c60 -127 162
-175 247 -117 l35 24 17 -39 c44 -100 189 -152 314 -114 19 7 22 4 22 -22 0
-62 69 -131 140 -140 l43 -6 -7 154 c-4 85 -14 277 -22 428 -13 247 -13 278 1
313 20 52 19 116 -4 158 -20 39 -94 100 -119 99 -15 0 -14 -2 2 -12 34 -21 86
-69 86 -78 0 -14 -67 0 -125 26 -108 49 -173 155 -183 302 -12 184 61 316 198
353 23 6 74 10 114 9 40 -1 79 2 86 6 8 5 11 4 7 -2 -4 -6 0 -13 7 -16 14 -6
154 6 241 19 46 7 188 43 194 50 3 2 13 -28 22 -66 27 -105 73 -185 155 -266
81 -81 163 -126 272 -149 188 -40 376 18 510 159 114 120 157 238 150 413 -3
80 0 104 10 108 29 11 38 3 50 -39 15 -58 95 -273 188 -509 41 -103 74 -199
74 -213 0 -28 -19 -38 -95 -48 -27 -4 -75 -12 -105 -18 -85 -17 -35 -27 97
-19 89 6 116 11 133 26 30 27 25 85 -16 195 -81 214 -93 250 -90 250 2 0 17
-24 34 -52 59 -106 176 -197 304 -239 108 -35 262 -31 365 8 15 6 16 -12 10
-183 -11 -317 -49 -561 -111 -715 l-26 -62 59 7 c89 10 186 40 231 71 43 29
80 94 80 139 0 45 -30 96 -67 114 -36 17 -39 30 -22 83 34 99 145 140 199 72
28 -36 25 -69 -9 -104 -28 -27 -28 -30 -11 -39 32 -17 100 -11 142 12 47 27
88 91 88 139 -1 79 -78 176 -160 200 -38 12 -41 15 -35 38 3 14 9 68 12 118
l5 93 29 -25 c30 -24 87 -45 124 -45 11 1 37 7 57 14 38 13 38 13 58 -20 28
-45 85 -93 138 -117 124 -54 277 35 258 151 -7 49 -45 100 -84 114 -24 9 -31
16 -25 28 4 8 8 38 8 66 0 68 -37 124 -97 149 l-43 18 -1 56 c-2 67 -20 114
-64 164 l-32 37 36 0 c44 0 91 23 106 51 11 20 12 19 41 -6 39 -32 68 -39 134
-32 145 15 252 117 229 220 -25 118 -129 190 -306 212 -53 7 -57 9 -71 44 -36
90 -77 277 -77 349 0 27 4 32 24 32 32 0 154 38 183 57 59 39 85 156 54 246
-18 52 -102 135 -183 182 -100 58 -74 54 35 -4 80 -43 102 -51 148 -51 70 0
116 26 124 72 6 32 -35 241 -55 277 -15 29 -44 49 -90 61 -36 9 -61 28 -123
91 -99 100 -121 108 -252 86 -66 -11 -105 -13 -129 -6 -39 11 -86 45 -86 62 0
7 30 27 66 46 85 44 177 128 199 184 10 23 18 68 18 99 0 69 -32 126 -87 152
-54 25 -151 39 -234 32 -78 -6 -120 -22 -149 -58 -16 -20 -27 -23 -93 -23 -71
0 -79 -2 -124 -35 -41 -29 -75 -73 -88 -112 -3 -7 -140 13 -191 28 -25 8 -17
16 76 77 125 82 166 143 154 230 -8 56 -40 85 -102 93 -28 3 -62 15 -77 25
-15 10 -38 19 -51 19 -20 0 -202 -93 -464 -236 -35 -19 -63 -31 -63 -27 0 3
38 77 84 162 98 183 106 205 106 281 0 50 -4 62 -29 89 -51 55 -145 36 -201
-40 -27 -38 -35 -43 -73 -44 -56 -1 -111 -36 -134 -84 l-18 -39 -55 5 c-46 4
-61 1 -89 -19 -19 -12 -42 -34 -53 -48 -20 -27 -27 -89 -15 -132 7 -26 6 -26
-51 -33 -31 -3 -81 -14 -110 -24 -47 -16 -52 -16 -52 -2 0 28 -38 79 -71 97
-23 11 -48 15 -86 12 l-53 -5 0 41 c0 74 -57 135 -113 121 -20 -5 -22 -2 -23
34 -2 50 -30 99 -75 129 -27 19 -44 23 -84 19 -27 -2 -59 -7 -70 -11 -15 -5
-24 0 -37 21 -41 70 -58 78 -128 64z m1508 -1945 c78 -60 89 -71 76 -83 -20
-21 -17 -73 6 -98 19 -20 19 -26 8 -73 -10 -44 -15 -52 -34 -52 -52 0 -85 -74
-60 -134 20 -49 68 -76 135 -76 48 0 56 3 85 35 18 19 37 35 42 35 19 0 54 45
60 78 4 17 14 34 23 37 47 15 64 139 37 272 -9 44 -16 84 -16 88 0 26 26 -29
95 -200 80 -199 115 -312 115 -377 l0 -38 -62 0 c-38 0 -67 5 -77 14 -45 40
-181 58 -252 35 -53 -18 -99 -57 -99 -84 0 -30 23 -38 86 -30 l48 5 -40 -26
c-90 -60 -174 -163 -212 -260 -11 -27 -24 -49 -28 -48 -5 0 -37 4 -72 8 -61 8
-64 10 -84 50 -16 30 -23 36 -26 23 -2 -10 1 -31 7 -47 5 -17 7 -30 3 -30 -4
0 -17 -3 -29 -6 -15 -4 -23 -2 -23 7 0 7 -18 49 -40 94 -88 183 -278 297 -490
296 -156 0 -281 -52 -390 -161 -105 -105 -160 -234 -160 -373 l0 -66 -52 -10
c-59 -12 -199 -36 -267 -46 -38 -6 -43 -4 -37 10 3 9 6 23 6 31 0 8 9 14 19
14 27 0 72 40 74 67 1 14 10 24 24 28 21 5 40 31 90 125 10 19 32 55 48 80 42
65 74 160 82 242 4 53 14 84 34 117 35 58 54 132 74 296 18 150 23 175 33 175
4 0 24 -15 45 -34 50 -45 73 -48 193 -29 57 9 116 13 137 9 l37 -7 0 -63 c0
-116 63 -256 116 -256 33 0 64 17 64 35 0 10 11 15 35 15 45 0 81 34 91 85 12
67 -1 186 -29 255 -14 35 -25 65 -23 67 1 1 40 -34 87 -78 46 -45 94 -88 107
-96 12 -8 22 -21 22 -29 0 -18 40 -44 67 -44 68 0 186 180 155 236 -12 21 17
76 34 66 6 -4 52 -38 102 -76z m-696 -617 c178 -38 351 -204 401 -385 34 -122
14 -284 -49 -392 -47 -81 -148 -177 -227 -216 -91 -44 -140 -55 -248 -56 -232
0 -427 146 -505 380 -27 82 -25 225 4 312 63 184 214 318 407 361 40 9 166 7
217 -4z m1279 -10 c8 -16 18 -20 40 -17 26 4 29 1 33 -26 10 -66 26 -404 33
-677 l6 -285 -60 -17 c-120 -34 -284 -18 -395 39 -110 56 -230 197 -264 311
-62 209 2 426 167 568 90 77 116 85 232 78 l97 -6 0 26 c0 26 3 27 50 27 40 0
51 -4 61 -21z m298 -225 c37 -54 69 -143 82 -231 11 -73 10 -91 -5 -144 -15
-57 -82 -177 -92 -167 -2 3 13 37 34 78 35 69 37 77 37 169 0 112 -25 203 -78
293 -37 61 -19 62 22 2z m-943 -157 c1 -1 -2 -29 -8 -62 -9 -55 -3 -128 17
-225 6 -29 9 -36 -71 154 l-63 149 61 -7 c34 -3 62 -7 64 -9z m34 -352 c0 -5
-5 -3 -10 5 -5 8 -10 20 -10 25 0 6 5 3 10 -5 5 -8 10 -19 10 -25z m-1861
-677 c1 -16 -3 -28 -7 -28 -5 0 -9 21 -10 48 -1 35 1 42 8 27 5 -11 9 -32 9
-47z"/>
<path d="M7015 11226 c-107 -37 -180 -89 -173 -123 4 -23 40 -23 168 0 52 9
150 21 218 25 67 5 128 14 134 20 15 15 -4 38 -56 64 -52 27 -229 36 -291 14z"/>
<path d="M7039 11000 c-78 -20 -167 -85 -146 -107 4 -3 39 4 79 16 40 11 100
21 133 21 33 0 93 -10 133 -21 40 -12 75 -19 79 -16 3 4 -2 18 -11 33 -37 55
-182 95 -267 74z"/>
<path d="M7124 10760 c-79 -32 -67 -177 16 -195 39 -9 79 1 109 26 18 14 25
33 29 69 4 44 2 52 -26 80 -32 31 -81 39 -128 20z"/>
<path d="M8163 11030 c-67 -14 -153 -67 -153 -96 0 -19 24 -17 90 6 73 26 170
26 252 0 97 -30 110 -25 61 25 -55 55 -162 83 -250 65z"/>
<path d="M8213 10765 c-33 -14 -63 -59 -63 -95 0 -77 88 -123 165 -88 75 34
69 161 -8 188 -39 13 -55 12 -94 -5z"/>
<path d="M12579 13527 c309 -5 699 -5 1010 0 490 9 473 10 -504 10 -975 0
-993 -1 -506 -10z"/>
<path d="M12128 13087 c36 -7 59 -7 75 1 18 9 7 11 -53 10 l-75 -1 53 -10z"/>
<path d="M12683 13093 c9 -2 23 -2 30 0 6 3 -1 5 -18 5 -16 0 -22 -2 -12 -5z"/>
<path d="M12885 13090 c154 -12 668 -11 685 0 10 6 -124 9 -385 8 -261 -1
-365 -4 -300 -8z"/>
<path d="M13663 13093 c37 -2 96 -2 130 0 34 2 4 3 -68 3 -71 0 -99 -1 -62 -3z"/>
<path d="M12668 12773 c7 -3 16 -2 19 1 4 3 -2 6 -13 5 -11 0 -14 -3 -6 -6z"/>
<path d="M12723 12773 c9 -2 25 -2 35 0 9 3 1 5 -18 5 -19 0 -27 -2 -17 -5z"/>
<path d="M13033 12773 c130 -2 344 -2 475 0 130 1 23 2 -238 2 -261 0 -368 -1
-237 -2z"/>
<path d="M13798 12773 c23 -2 61 -2 85 0 23 2 4 4 -43 4 -47 0 -66 -2 -42 -4z"/>
<path d="M13978 12773 c12 -2 32 -2 45 0 12 2 2 4 -23 4 -25 0 -35 -2 -22 -4z"/>
<path d="M12115 12760 c-13 -5 0 -8 42 -7 34 0 60 4 57 9 -7 10 -72 9 -99 -2z"/>
<path d="M10540 8628 l0 -2373 3037 3 c1671 1 3283 3 3583 5 300 1 -1063 3
-3027 5 l-3573 2 0 2355 0 2355 3803 -2 3802 -3 2 -1955 c2 -1075 4 -2079 6
-2230 1 -151 3 734 5 1968 l2 2242 -3820 0 -3820 0 0 -2372z"/>
<path d="M10852 10784 c-43 -30 -15 -114 38 -114 29 0 60 36 60 69 0 31 -30
61 -60 61 -9 0 -26 -7 -38 -16z"/>
<path d="M11071 10774 c-27 -34 -26 -50 4 -79 29 -30 45 -31 79 -4 31 25 33
57 6 87 -28 30 -64 28 -89 -4z"/>
<path d="M11300 10780 c-54 -54 12 -137 76 -95 32 21 33 77 2 99 -30 21 -54
20 -78 -4z"/>
<path d="M11285 10530 c-368 -3 1018 -5 3080 -6 2063 0 3413 3 3000 7 -865 7
-5087 7 -6080 -1z"/>
<path d="M5871 10471 c-83 -83 -79 -267 7 -342 30 -27 54 -34 92 -29 34 4 27
15 -9 15 -47 0 -76 23 -102 80 -36 78 -19 222 31 262 22 18 61 16 76 -4 7 -10
14 -13 14 -6 1 41 -76 57 -109 24z"/>
<path d="M7385 9970 c-4 -6 -7 -32 -7 -58 0 -28 -7 -54 -16 -65 -17 -19 -28
-120 -18 -160 9 -37 56 -82 100 -97 54 -17 117 -8 187 29 33 17 69 31 82 31
12 0 29 5 37 10 13 9 12 12 -4 25 -18 14 -18 16 -3 33 26 28 21 54 -18 100
-67 77 -211 126 -275 92 -16 -8 -20 -5 -30 25 -13 39 -25 51 -35 35z"/>
<path d="M11486 9633 c-44 -126 -82 -234 -84 -241 -3 -10 2 -13 19 -10 21 3
32 27 101 223 43 121 80 228 83 238 5 13 1 17 -17 17 -21 0 -30 -19 -102 -227z"/>
<path d="M11252 9677 c-93 -37 -103 -43 -100 -65 3 -20 19 -31 113 -68 60 -24
110 -44 112 -44 2 0 3 10 3 23 0 19 -12 27 -80 51 -44 15 -82 32 -85 36 -2 4
34 21 80 39 66 25 85 36 85 52 0 25 -7 24 -128 -24z"/>
<path d="M11632 9699 c2 -16 23 -28 88 -54 l85 -32 -39 -17 c-22 -9 -61 -24
-88 -33 -38 -14 -48 -22 -48 -40 l0 -23 48 19 c183 73 183 73 180 95 -2 17
-25 30 -108 63 -58 23 -109 42 -113 42 -5 1 -7 -8 -5 -20z"/>
<path d="M11921 9486 c-18 -22 4 -58 32 -54 31 4 32 62 1 66 -11 2 -26 -4 -33
-12z"/>
<path d="M12033 9484 c-15 -39 38 -67 60 -32 8 12 7 21 -2 32 -17 21 -50 20
-58 0z"/>
<path d="M12154 9486 c-11 -29 0 -51 26 -51 21 0 25 5 25 30 0 24 -5 31 -23
33 -13 2 -24 -3 -28 -12z"/>
<path d="M12400 9010 c-283 -3 378 -5 1470 -6 1387 0 1752 2 1210 7 -877 7
-1919 7 -2680 -1z"/>
<path d="M11603 9003 c48 -2 125 -2 170 0 45 1 6 3 -88 3 -93 0 -130 -2 -82
-3z"/>
<path d="M16580 8989 c25 -4 113 -8 195 -8 83 0 170 4 195 8 28 6 -44 8 -195
8 -151 0 -223 -2 -195 -8z"/>
<path d="M17245 8990 c28 -5 124 -8 215 -8 91 0 188 3 215 8 31 4 -52 7 -215
7 -163 0 -246 -3 -215 -7z"/>
<path d="M6720 8982 c0 -29 229 -272 256 -272 6 0 19 -9 28 -19 25 -27 175
-99 276 -131 113 -36 231 -51 394 -49 l133 1 6 91 c3 55 1 94 -5 98 -5 3 -46
7 -91 8 -184 4 -370 34 -567 92 -113 33 -168 56 -327 135 -57 28 -103 49 -103
46z"/>
<path d="M11443 8583 c15 -2 39 -2 55 0 15 2 2 4 -28 4 -30 0 -43 -2 -27 -4z"/>
<path d="M11648 8583 c68 -2 176 -2 240 0 64 1 9 3 -123 3 -132 0 -185 -2
-117 -3z"/>
<path d="M12443 8583 c241 -2 633 -2 870 0 238 1 41 2 -438 2 -478 0 -673 -1
-432 -2z"/>
<path d="M13842 8583 c48 -2 129 -2 180 0 51 1 12 3 -87 3 -99 0 -141 -2 -93
-3z"/>
<path d="M14178 8583 c7 -3 16 -2 19 1 4 3 -2 6 -13 5 -11 0 -14 -3 -6 -6z"/>
<path d="M14760 8580 c52 -4 203 -8 335 -8 132 0 283 4 335 8 57 4 -76 7 -335
7 -259 0 -392 -3 -335 -7z"/>
<path d="M11215 8370 c-20 -5 -1 -7 59 -8 48 -1 87 0 85 2 -10 8 -117 13 -144
6z"/>
<path d="M11700 8359 c25 -4 108 -8 185 -8 77 0 160 4 185 8 29 6 -39 8 -185
8 -146 0 -214 -2 -185 -8z"/>
<path d="M12235 8359 c51 -10 256 -10 315 0 30 6 -24 9 -155 9 -131 0 -186 -3
-160 -9z"/>
<path d="M12830 8359 c59 -10 274 -10 325 0 26 6 -32 9 -165 9 -134 0 -189 -3
-160 -9z"/>
<path d="M13395 8359 c52 -10 238 -10 290 0 27 6 -22 9 -145 9 -123 0 -172 -3
-145 -9z"/>
<path d="M14000 8360 c201 -9 1122 -9 1315 0 83 3 -214 6 -660 6 -445 0 -740
-3 -655 -6z"/>
<path d="M5930 8265 c-7 -8 -16 -13 -20 -10 -12 7 -101 -31 -93 -40 5 -4 0 -5
-9 -2 -10 3 -20 2 -23 -3 -4 -6 -15 -10 -26 -10 -10 0 -19 -3 -19 -8 0 -16 32
-52 41 -47 5 3 6 0 3 -8 -3 -9 4 -21 15 -29 11 -8 37 -36 56 -62 20 -25 41
-43 47 -40 6 4 9 1 6 -6 -5 -17 62 -91 75 -83 6 3 7 2 4 -4 -11 -17 247 -258
265 -247 4 3 7 1 6 -6 -2 -6 10 -18 27 -28 16 -9 38 -25 49 -34 20 -18 32 -22
51 -18 6 1 7 -2 3 -6 -8 -8 91 -70 105 -66 5 1 20 -7 34 -18 14 -11 30 -20 36
-20 6 0 39 -11 73 -25 76 -31 231 -68 245 -60 5 4 16 2 23 -4 19 -16 222 -24
296 -12 36 6 85 13 110 16 25 3 47 10 48 15 2 6 7 8 12 5 9 -6 118 31 136 46
8 6 14 9 14 5 0 -3 32 11 71 31 103 54 110 59 101 68 -4 5 -1 5 6 1 21 -12
197 137 185 157 -3 5 -1 7 5 3 6 -3 28 19 51 51 33 46 38 60 28 72 -9 12 -9
13 0 8 20 -13 56 76 79 198 l8 40 6 -40 c3 -22 2 -49 -1 -60 -16 -44 -40 -131
-39 -139 1 -5 -3 -12 -8 -15 -9 -6 -43 -66 -42 -76 0 -3 -9 -14 -20 -25 -12
-12 -18 -26 -14 -33 4 -7 4 -9 -1 -5 -4 4 -31 -16 -59 -45 -28 -29 -77 -72
-109 -96 -61 -45 -241 -141 -265 -141 -7 0 -10 -5 -6 -12 4 -7 3 -8 -5 -4 -6
4 -36 -2 -65 -13 -30 -11 -77 -23 -105 -27 -28 -4 -49 -9 -47 -13 6 -9 -33 -9
-341 -7 -24 0 -43 4 -43 8 0 5 -12 8 -26 8 -14 0 -62 10 -107 21 -45 12 -89
23 -97 24 -15 2 -52 18 -185 80 -79 36 -269 167 -330 226 -23 21 -46 39 -53
39 -7 0 -11 4 -8 8 6 11 -30 42 -39 34 -4 -4 -5 -2 -3 3 2 6 -25 40 -59 76
-35 35 -70 75 -79 88 -13 18 -18 20 -26 10 -7 -11 -8 -11 -6 1 4 21 -41 82
-54 74 -6 -4 -8 -3 -5 2 3 6 -16 39 -44 74 -27 35 -49 68 -49 72 0 5 -5 6 -10
3 -6 -4 -7 -12 -3 -18 5 -9 3 -9 -8 0 -9 7 -20 9 -25 4 -5 -5 -34 -18 -64 -29
-30 -11 -127 -50 -215 -87 -88 -37 -175 -71 -193 -77 -18 -5 -30 -13 -27 -18
3 -6 0 -7 -8 -5 -7 3 -30 -1 -51 -10 -36 -15 -43 -15 -174 19 -320 82 -549
110 -887 109 -662 -2 -1256 -167 -1722 -480 -340 -227 -551 -505 -625 -823
-26 -112 -35 -401 -19 -577 75 -795 296 -1940 661 -3418 139 -564 369 -1423
405 -1517 7 -17 -39 -18 -861 -20 -478 -1 310 -5 1751 -9 1441 -3 4442 -7
6669 -8 l4049 -1 23 -55 c34 -85 83 -160 149 -230 58 -61 159 -145 174 -145
21 0 68 210 77 345 l7 95 2101 2 c1156 2 1879 4 1608 5 l-492 3 59 89 60 89
-31 6 c-17 3 -86 6 -154 6 -68 0 -124 2 -124 5 0 13 171 1371 173 1380 2 6 12
-15 22 -45 21 -64 55 -122 98 -165 33 -33 22 -15 -35 61 -21 27 -38 56 -38 65
0 9 -7 32 -15 52 -8 19 -12 37 -9 40 3 3 25 -6 50 -20 24 -14 51 -22 59 -19 8
3 15 1 15 -4 0 -5 8 -9 18 -9 9 0 29 -3 44 -7 38 -9 120 4 112 18 -4 7 -2 8 5
4 18 -11 95 39 134 87 66 80 102 182 74 206 -24 19 -150 43 -197 37 -64 -8
-121 -26 -115 -36 3 -4 -3 -6 -12 -4 -11 3 -38 -12 -69 -38 -53 -45 -99 -97
-73 -84 8 4 4 -1 -7 -11 -12 -10 -28 -29 -35 -43 -12 -24 -14 -20 -35 65 -12
50 -29 106 -38 126 -21 51 -97 148 -153 194 -26 22 -86 77 -133 122 -79 78
-115 107 -76 64 16 -17 16 -19 -4 -24 -11 -3 -23 -1 -26 5 -3 5 -15 8 -25 5
-10 -3 -21 -2 -24 3 -5 9 -103 6 -155 -4 -48 -10 -106 -41 -102 -56 1 -6 -3
-8 -9 -4 -15 9 -106 -90 -126 -136 -28 -66 -27 -67 50 -104 40 -19 86 -35 102
-36 70 -5 106 -1 152 14 55 18 150 97 139 115 -5 7 -2 10 6 9 7 -2 12 3 10 10
-1 6 2 12 7 12 11 0 40 78 43 118 2 15 18 16 18 0 0 -6 3 -9 6 -6 3 4 21 -10
40 -30 19 -20 34 -32 34 -28 0 5 8 0 18 -10 9 -11 30 -30 46 -42 16 -12 25
-22 22 -22 -4 0 6 -12 23 -26 17 -14 31 -30 31 -35 0 -5 -19 -9 -43 -9 -24 0
-47 -3 -50 -7 -4 -3 -19 -8 -33 -9 -30 -3 -109 -52 -146 -91 -40 -41 -70 -119
-72 -181 l-1 -53 -210 5 c-380 10 -1305 18 -1305 11 0 -8 87 -557 160 -1015
28 -173 54 -339 57 -368 l6 -52 -99 -2 c-54 -1 -109 -2 -121 -2 -13 0 -23 -3
-23 -6 0 -3 29 -41 65 -85 35 -44 64 -83 65 -88 0 -4 -298 -6 -662 -5 l-662 3
-12 70 c-14 83 -50 176 -92 237 -39 57 -132 143 -176 165 -33 15 -36 20 -36
57 1 116 56 263 133 355 76 90 191 167 147 98 -58 -91 -73 -189 -46 -295 20
-80 54 -138 125 -215 65 -70 210 -182 222 -170 15 15 31 158 25 223 -20 199
-97 340 -255 471 l-44 36 49 19 c27 10 51 19 54 20 8 1 100 42 140 62 83 41
188 179 206 272 8 40 20 38 28 -4 14 -75 77 -179 155 -256 116 -115 248 -170
409 -170 86 0 86 -2 42 125 -86 256 -255 404 -461 405 -32 0 -144 -23 -144
-30 0 0 0 82 0 182 0 101 -3 228 -8 282 l-7 99 48 -46 c27 -25 74 -58 103 -74
48 -25 64 -28 149 -28 88 0 101 3 162 33 70 34 153 114 164 158 12 48 -121
133 -245 156 -106 20 -235 -16 -331 -92 l-40 -32 0 29 c1 80 55 224 111 294
66 83 186 139 299 139 126 0 226 -35 322 -113 31 -25 58 -44 60 -42 1 2 4 -13
6 -32 2 -38 19 -66 33 -58 14 9 50 -34 76 -92 l25 -55 -21 -19 c-11 -10 -24
-19 -29 -19 -11 0 -102 -91 -102 -102 0 -12 43 -37 53 -31 6 3 7 2 4 -4 -8
-13 50 -46 65 -37 7 4 8 3 4 -4 -8 -14 40 -36 56 -26 7 5 8 2 3 -6 -6 -10 -4
-12 8 -7 11 4 17 1 17 -8 0 -8 5 -15 10 -15 6 0 10 5 10 10 0 7 8 6 23 -1 13
-7 60 -12 112 -12 123 1 241 43 319 114 10 10 24 15 32 12 11 -4 14 4 13 33
-1 23 -4 30 -6 17 -4 -21 -7 -20 -46 18 -52 49 -123 92 -139 83 -6 -4 -8 -3
-5 3 4 6 -15 17 -46 26 -106 32 -131 31 -302 -10 -16 -4 -26 8 -53 62 -32 65
-34 79 -9 80 35 1 88 21 132 50 91 59 148 136 171 233 17 74 17 124 -1 192 -8
30 -13 56 -11 57 6 6 98 -67 124 -98 13 -16 27 -27 32 -24 4 3 6 -3 3 -14 -3
-11 2 -21 11 -24 23 -9 95 -159 117 -246 11 -42 24 -119 28 -171 8 -91 8 -92
10 -28 2 116 -51 315 -104 391 -25 35 -18 45 38 52 28 4 61 12 72 18 11 6 25
12 31 13 69 12 234 171 238 228 0 13 4 22 7 20 14 -8 39 103 39 172 0 91 -9
98 -120 92 -60 -4 -92 -12 -143 -36 -63 -31 -167 -114 -167 -134 0 -6 -8 -22
-19 -36 -28 -41 -51 -128 -51 -199 0 -35 -2 -63 -5 -63 -3 0 -34 23 -68 50
-34 28 -67 55 -73 59 -7 6 -16 5 -23 -2 -9 -9 -11 -8 -6 4 5 14 -29 48 -45 45
-3 0 -31 26 -63 59 -62 63 -102 137 -132 240 -10 33 -24 80 -31 104 -8 25 -14
53 -14 63 0 10 -5 18 -11 18 -6 0 -9 -6 -6 -13 3 -7 19 -67 37 -132 38 -146
79 -222 159 -298 64 -61 68 -67 49 -67 -6 0 -20 -8 -31 -17 -11 -10 -17 -12
-13 -6 5 9 2 11 -8 7 -9 -3 -13 -10 -10 -15 3 -5 -2 -6 -10 -3 -8 3 -23 -2
-33 -10 -10 -9 -37 -32 -61 -53 -24 -20 -41 -42 -38 -49 3 -8 1 -13 -5 -11 -6
1 -20 -16 -32 -38 -12 -22 -25 -42 -28 -45 -8 -7 -36 -96 -43 -139 -4 -19 -1
-40 5 -47 8 -10 9 -14 0 -14 -6 0 -11 -7 -11 -15 0 -22 -10 -19 -45 15 -18 17
-66 48 -107 69 l-75 37 24 24 c44 42 57 80 57 160 -1 125 -66 316 -147 429
-18 25 -36 51 -40 58 -5 7 12 20 48 37 111 50 216 191 231 309 4 28 11 46 18
44 6 -2 29 -38 50 -80 22 -42 41 -75 44 -73 9 10 -57 132 -90 166 -34 36 -62
43 -178 43 -99 1 -211 -31 -266 -76 -10 -9 -34 -28 -53 -44 -46 -37 -107 -133
-128 -201 -17 -54 -17 -54 5 -73 38 -31 129 -51 209 -47 40 2 73 2 73 1 0 -2
-16 -24 -37 -50 -80 -106 -116 -240 -95 -354 14 -76 58 -173 102 -222 l32 -37
-34 0 c-64 0 -149 -31 -229 -83 l-24 -16 -2 60 c-5 143 -109 257 -291 317 -67
22 -98 26 -232 29 -85 1 -161 -1 -168 -6 -11 -6 -9 -20 8 -72 40 -119 110
-211 212 -281 108 -72 252 -108 368 -90 36 5 66 9 68 7 1 -1 -12 -24 -31 -51
-67 -101 -104 -276 -93 -449 4 -55 9 -135 13 -179 7 -91 0 -94 -49 -21 -121
180 -377 207 -605 63 l-66 -42 49 -43 c165 -144 384 -173 581 -77 91 44 98 38
89 -81 -15 -221 -98 -365 -254 -444 -80 -40 -92 -40 -92 2 0 86 -58 215 -132
293 -103 109 -208 155 -360 158 -68 1 -98 5 -98 13 0 6 29 164 65 350 175 919
216 1130 221 1155 5 24 9 26 24 18 25 -13 123 -13 115 0 -3 5 0 7 9 4 32 -12
191 61 166 76 -8 5 -7 9 5 13 9 4 13 3 10 -3 -11 -17 10 -11 25 8 58 68 84
109 101 157 19 54 25 150 11 172 -11 17 -130 26 -187 13 -72 -15 -142 -51
-185 -94 -20 -20 -20 -20 -20 1 0 11 14 94 31 184 35 183 35 259 1 324 -29 58
-79 104 -142 134 l-55 26 -2325 5 -2325 5 -3 49 c-2 28 -7 55 -12 61 -6 7 -8
14 -5 17 5 5 -11 100 -22 128 -4 8 -7 26 -9 40 -6 65 -152 643 -170 672 -3 4
-14 3 -25 -2 -11 -6 -16 -16 -13 -22 5 -7 2 -8 -5 -3 -7 4 -22 -1 -34 -13 -12
-11 -37 -27 -54 -36 -18 -9 -33 -21 -33 -26 0 -6 -3 -9 -7 -8 -12 4 -86 -44
-101 -64 -7 -10 -17 -16 -23 -13 -10 7 -101 -44 -95 -53 2 -4 -9 -7 -25 -8
-16 -1 -29 2 -29 6 0 4 39 34 88 66 92 61 104 72 95 88 -3 5 -1 6 6 2 6 -4 9
-12 5 -17 -3 -6 27 11 66 36 40 26 88 54 106 62 18 9 31 20 28 25 -3 4 1 5 9
2 28 -10 29 17 4 89 -14 40 -37 110 -52 157 -15 47 -42 117 -60 155 -17 39
-40 89 -50 112 -10 23 -22 40 -26 38 -4 -3 -10 2 -13 11 -4 9 -2 13 5 8 15 -9
-19 44 -50 80 -14 16 -20 26 -12 21 9 -5 7 1 -4 19 -10 14 -22 26 -27 26 -5 0
-7 4 -4 8 3 5 -8 24 -24 43 -16 19 -29 38 -30 42 0 12 -103 138 -157 193 -114
115 -297 258 -320 250 -8 -3 -12 -2 -9 2 2 4 -10 17 -27 28 -44 29 -218 138
-239 149 -9 6 -68 45 -132 88 -64 42 -120 77 -125 77 -5 0 -14 7 -21 15 -7 9
-19 14 -27 11 -8 -3 -11 -1 -8 4 3 6 -2 13 -12 17 -10 4 -45 26 -79 50 -34 24
-65 43 -69 43 -4 0 -28 15 -54 33 -75 54 -72 55 -65 -11 12 -109 -35 -260
-110 -357 -37 -47 -113 -125 -123 -125 -4 0 -16 -8 -27 -19 -28 -25 -120 -72
-181 -94 -288 -100 -628 -39 -935 168 -191 129 -323 260 -534 529 -31 40 -38
43 -56 21z m-2438 -2078 c9 -1 14 -6 11 -11 -4 -5 1 -7 9 -3 9 3 20 1 25 -4
20 -20 519 -188 570 -192 17 -1 29 -4 27 -7 -7 -7 79 -30 89 -23 5 3 12 1 16
-4 6 -10 221 -65 238 -62 4 1 15 0 23 -4 50 -19 496 -94 538 -90 6 0 12 -5 12
-11 0 -8 -11 -11 -27 -10 -16 2 -93 11 -173 20 -80 10 -158 18 -175 18 -16 1
-32 3 -35 6 -5 6 -195 45 -220 45 -8 0 -17 2 -20 5 -3 3 -34 12 -70 19 -36 7
-134 33 -218 57 -84 24 -158 41 -164 38 -7 -5 -8 -2 -3 6 6 10 4 12 -8 7 -9
-3 -17 -3 -19 2 -2 4 -43 20 -93 36 -49 16 -130 46 -180 67 -49 21 -97 40
-105 41 -8 2 -42 18 -75 35 -54 29 -56 32 -25 27 19 -3 43 -7 52 -8z m5701
-304 c3 -5 -5 -9 -16 -9 -12 -1 -83 -20 -157 -44 -74 -23 -167 -50 -207 -60
-39 -10 -77 -21 -84 -26 -7 -4 -22 -8 -33 -9 -56 -4 -145 -28 -139 -38 3 -5 1
-7 -5 -3 -12 7 -385 -65 -390 -77 -2 -4 -8 -5 -12 -2 -5 3 -78 -6 -162 -19
-366 -61 -740 -94 -1148 -102 -287 -6 -677 5 -875 26 -49 5 -121 12 -160 15
-70 5 -110 10 -350 46 -195 29 -405 71 -400 79 4 7 40 3 175 -20 41 -7 91 -14
110 -16 19 -2 91 -13 159 -23 68 -11 156 -23 195 -26 39 -3 139 -12 221 -20
351 -34 751 -43 1120 -25 293 14 757 62 940 96 44 8 103 18 130 21 28 3 52 10
53 14 2 5 8 7 13 4 9 -6 134 16 334 60 66 14 144 31 172 37 31 6 50 15 46 21
-3 6 -1 7 5 3 12 -7 159 27 317 73 104 31 141 36 148 24z m74 -275 c-3 -8 -6
-5 -6 6 -1 11 2 17 5 13 3 -3 4 -12 1 -19z m-2142 -138 c-3 -5 -12 -10 -18
-10 -7 0 -6 4 3 10 19 12 23 12 15 0z m2242 -76 c-3 -3 -12 -4 -19 -1 -8 3 -5
6 6 6 11 1 17 -2 13 -5z m-6212 -915 c156 -33 434 -93 525 -114 101 -24 320
-71 465 -100 39 -8 129 -28 200 -44 72 -16 156 -34 188 -41 31 -6 55 -15 52
-20 -3 -4 -14 -50 -25 -102 -21 -98 -47 -214 -99 -438 -17 -74 -43 -184 -56
-245 -14 -60 -38 -170 -55 -243 -16 -73 -30 -140 -30 -150 0 -15 29 -21 203
-45 111 -15 229 -30 262 -33 33 -3 67 -7 76 -10 8 -2 110 -17 225 -33 115 -16
308 -44 429 -61 121 -17 283 -39 360 -50 77 -10 181 -25 230 -33 50 -8 133
-20 185 -27 52 -6 136 -18 185 -26 50 -8 144 -21 211 -29 l120 -16 125 45
c170 60 334 114 394 131 28 7 118 32 200 55 177 48 337 76 388 66 50 -9 267
-119 422 -213 72 -43 141 -85 154 -93 14 -8 34 -23 45 -32 11 -10 24 -18 28
-18 5 0 23 -10 41 -22 18 -13 34 -24 36 -25 2 -2 -2 -37 -9 -78 -10 -56 -17
-75 -26 -71 -16 6 -18 -6 -4 -20 8 -8 4 -44 -10 -120 -11 -60 -22 -124 -25
-141 -8 -51 -45 -246 -51 -265 -4 -14 -27 3 -107 81 -56 55 -115 110 -132 123
-16 12 -39 31 -49 40 -11 10 -24 18 -30 18 -5 0 -17 6 -25 13 -34 28 -101 39
-288 44 l-192 6 -36 -27 c-19 -15 -35 -31 -35 -35 0 -5 15 -14 33 -21 88 -35
390 -183 607 -298 117 -62 152 -100 158 -175 6 -74 -5 -81 -115 -75 -63 4
-112 14 -173 35 -101 36 -271 104 -356 143 -152 70 -246 84 -351 51 -39 -11
-81 -30 -95 -41 -15 -11 -31 -20 -36 -20 -6 0 -12 -4 -14 -8 -1 -4 -23 -21
-48 -38 -168 -111 -292 -105 -548 26 l-82 43 -313 -17 c-920 -51 -1399 -67
-1979 -66 -896 0 -1134 27 -1319 145 -53 35 -159 131 -159 146 0 4 -6 14 -14
22 -28 27 -85 156 -106 237 -28 110 -39 277 -28 434 13 189 47 361 279 1421
50 226 93 425 96 443 5 28 9 33 27 28 12 -4 44 -11 71 -17z m12986 -522 c-10
-9 -11 -8 -5 6 3 10 9 15 12 12 3 -3 0 -11 -7 -18z m-4167 -321 c26 -15 62
-48 81 -74 128 -177 21 -414 -194 -430 -123 -8 -219 46 -271 154 -44 89 -19
227 53 302 59 62 115 83 213 78 56 -2 82 -9 118 -30z m5974 -593 c11 -38 27
-96 34 -130 l15 -63 -88 0 -88 0 29 44 c31 46 60 139 60 194 0 49 15 32 38
-45z m492 -177 c0 -2 -8 -10 -17 -17 -16 -13 -17 -12 -4 4 13 16 21 21 21 13z
m-4020 -341 c30 -26 81 -65 113 -86 62 -40 199 -97 254 -106 18 -3 33 -8 33
-12 0 -3 -29 -22 -63 -41 -186 -104 -309 -328 -294 -534 5 -64 3 -74 -20 -104
-13 -17 -38 -62 -56 -100 -30 -62 -32 -76 -34 -182 l-2 -115 -178 0 c-172 0
-178 1 -176 20 1 11 58 315 127 675 69 360 128 671 132 690 11 63 13 63 61 2
27 -32 73 -80 103 -107z"/>
<path d="M7920 2710 c164 -11 274 -50 419 -145 67 -44 185 -143 224 -187 9
-11 17 -15 17 -10 0 38 -259 244 -356 283 -143 57 -158 60 -289 64 l-130 3
115 -8z"/>
<path d="M7755 2490 c-27 -4 -1 -7 75 -8 126 -1 186 -10 280 -42 86 -29 186
-78 218 -107 7 -7 17 -13 22 -13 4 0 21 -12 38 -27 16 -16 43 -39 59 -53 16
-14 34 -34 40 -45 6 -11 15 -17 18 -13 20 20 -160 170 -271 226 -136 69 -344
105 -479 82z"/>
<path d="M8520 2155 c7 -9 15 -13 17 -11 7 7 -7 26 -19 26 -6 0 -6 -6 2 -15z"/>
<path d="M12085 8110 c-231 -3 620 -6 1890 -6 1271 0 2096 3 1835 7 -551 7
-3108 7 -3725 -1z"/>
<path d="M11218 8088 c29 -6 57 -6 80 0 33 9 27 10 -43 10 -75 0 -77 -1 -37
-10z"/>
<path d="M11195 7810 c-14 -6 4 -9 55 -9 52 -1 70 2 60 9 -18 12 -88 12 -115
0z"/>
<path d="M11700 7810 c-19 -4 253 -7 605 -8 363 0 623 4 600 9 -49 10 -1156 9
-1205 -1z"/>
<path d="M11870 7500 c251 -9 802 -9 1045 -1 116 5 -87 7 -525 7 -440 0 -640
-2 -520 -6z"/>
<path d="M11195 7490 c-14 -6 4 -9 55 -9 52 -1 70 2 60 9 -18 12 -88 12 -115
0z"/>
<path d="M11660 7000 c21 -13 2180 -13 2180 0 0 7 -377 10 -1097 10 -700 -1
-1093 -4 -1083 -10z"/>
<path d="M14700 7000 c0 -6 135 -10 385 -10 250 0 385 4 385 10 0 6 -135 10
-385 10 -250 0 -385 -4 -385 -10z"/>
<path d="M15960 5699 c-121 -43 -211 -130 -250 -245 -12 -32 -19 -67 -16 -76
2 -10 0 -18 -5 -18 -13 0 -11 -56 6 -126 17 -74 35 -115 46 -108 5 3 6 -1 3
-9 -3 -8 -1 -18 5 -22 6 -3 11 -15 11 -25 0 -13 17 -26 55 -44 30 -13 75 -39
100 -56 25 -17 45 -27 45 -23 0 12 -108 82 -137 89 -34 9 -28 18 30 44 31 15
77 50 114 88 64 64 98 111 71 97 -8 -4 -7 -1 2 7 38 33 55 99 55 213 -1 94 -4
119 -26 169 -13 33 -32 60 -40 61 -9 2 -40 -6 -69 -16z"/>
<path d="M14928 5622 c-30 -35 -51 -115 -51 -193 0 -114 36 -208 108 -280 30
-29 59 -53 65 -51 5 1 10 -3 10 -8 0 -15 108 -61 154 -66 42 -4 59 -14 39 -21
-7 -3 -21 -12 -31 -21 -10 -9 -13 -14 -7 -10 7 4 38 21 71 38 32 16 51 30 41
30 -14 0 -16 6 -11 38 29 178 -7 302 -121 419 -59 60 -159 122 -208 127 -13 1
-28 5 -34 9 -5 4 -17 -1 -25 -11z"/>
<path d="M16422 5084 c-24 -7 -60 -23 -80 -35 -47 -28 -143 -130 -137 -146 2
-7 -1 -12 -6 -10 -16 3 -57 -112 -54 -150 1 -18 -2 -33 -6 -33 -5 0 -6 -7 -2
-16 3 -8 12 -13 20 -10 8 3 11 1 8 -4 -3 -6 3 -11 14 -12 12 -1 36 -3 54 -6
99 -12 256 6 242 28 -3 5 0 12 6 16 8 4 9 3 5 -4 -4 -7 -4 -12 -1 -12 8 0 69
31 75 39 3 3 14 11 25 17 11 7 19 19 19 28 -1 9 3 13 8 10 23 -14 109 109 137
198 9 26 9 43 2 56 -13 25 -81 52 -112 46 -19 -5 -21 -4 -9 5 23 16 -155 12
-208 -5z"/>
<path d="M15470 5080 c-25 -5 -56 -13 -70 -19 l-25 -12 25 6 c102 22 175 27
243 17 41 -6 82 -14 93 -18 13 -5 16 -4 9 4 -25 26 -180 38 -275 22z"/>
<path d="M15079 4873 c-13 -16 -12 -17 4 -4 16 13 21 21 13 21 -2 0 -10 -8
-17 -17z"/>
<path d="M17450 4681 c-25 -15 -62 -47 -82 -69 -37 -41 -73 -110 -63 -120 3
-3 0 -11 -6 -19 -18 -21 -3 -128 26 -191 14 -31 42 -76 62 -101 24 -28 33 -46
25 -49 -7 -2 -10 -8 -6 -13 3 -5 19 -2 36 7 16 9 54 18 84 21 30 3 54 9 54 13
0 5 -18 6 -40 3 -22 -3 -40 -3 -40 1 0 3 16 27 37 53 63 83 78 127 78 228 0
80 -3 97 -31 155 -30 61 -66 110 -82 110 -4 0 -27 -13 -52 -29z"/>
<path d="M16105 4690 c-3 -5 -1 -10 4 -10 6 0 11 5 11 10 0 6 -2 10 -4 10 -3
0 -8 -4 -11 -10z"/>
<path d="M18210 4184 c-25 -9 -61 -28 -80 -42 -46 -34 -110 -104 -110 -119 0
-7 -4 -13 -9 -13 -5 0 -14 -13 -21 -30 -16 -38 -21 -38 -44 1 -28 47 -30 28
-2 -22 13 -24 39 -80 57 -124 18 -44 36 -82 41 -83 4 -2 6 -8 2 -13 -3 -5 0
-9 5 -9 6 0 10 -3 9 -7 -4 -16 32 -71 64 -98 53 -45 106 -65 173 -63 l60 1
-71 8 c-49 6 -87 17 -120 36 -43 25 -55 40 -100 128 -29 55 -55 115 -59 133
l-7 34 31 -17 c18 -9 37 -13 43 -9 6 4 8 3 5 -3 -16 -26 145 -30 219 -6 67 21
161 100 151 127 -4 9 -2 15 5 13 7 -1 18 11 26 27 20 40 42 125 34 130 -56 33
-231 45 -302 20z"/>
<path d="M17590 4160 c0 -6 17 -10 39 -8 22 1 38 5 35 10 -8 12 -74 10 -74 -2z"/>
<path d="M17754 4125 c69 -30 133 -73 144 -97 2 -5 9 -8 15 -8 18 0 -65 80
-105 101 -21 11 -38 17 -38 14 0 -3 -13 1 -30 10 -16 8 -37 15 -47 15 -10 0
18 -16 61 -35z"/>
<path d="M17345 4094 c-60 -40 -113 -92 -154 -154 -50 -73 -54 -80 -44 -80 4
0 18 19 31 43 28 52 129 157 177 182 19 11 35 23 35 27 0 11 -1 11 -45 -18z"/>
<path d="M17550 4040 c-6 -11 -8 -20 -6 -20 3 0 10 9 16 20 6 11 8 20 6 20 -3
0 -10 -9 -16 -20z"/>
<path d="M17516 3965 c-9 -26 -7 -32 5 -12 6 10 9 21 6 23 -2 3 -7 -2 -11 -11z"/>
<path d="M19335 3973 c-16 -2 -37 -7 -45 -10 -8 -3 -18 -5 -23 -5 -4 1 -27 -7
-51 -19 -74 -34 -177 -143 -161 -169 4 -6 1 -9 -5 -8 -13 3 -43 -69 -34 -83 3
-5 -1 -9 -8 -9 -9 0 -9 -3 2 -10 13 -9 13 -10 0 -10 -16 -1 48 -59 65 -60 6 0
4 4 -4 9 -21 14 5 24 30 11 21 -12 128 -9 181 4 44 10 113 51 110 65 -1 7 2
10 8 6 19 -12 108 124 95 144 -3 5 -1 11 5 13 6 2 13 26 16 54 l6 51 -43 11
c-56 14 -106 19 -144 15z"/>
<path d="M17490 3835 c-2 -27 -3 -72 -1 -100 2 -56 30 -167 40 -161 3 2 7 -7
7 -20 2 -26 20 -54 36 -54 5 0 6 5 2 12 -5 7 -3 8 7 2 8 -5 19 -9 24 -9 6 -1
9 -6 8 -12 -3 -13 26 -40 47 -45 8 -2 20 -8 28 -15 18 -17 79 -33 127 -33 64
0 161 39 211 85 24 23 46 39 49 37 3 -3 5 1 5 9 0 8 -11 31 -25 50 -66 88
-181 151 -280 153 -84 1 -130 -10 -202 -50 -62 -33 -63 -33 -68 -11 -3 12 -6
65 -8 117 -2 64 -4 79 -7 45z"/>
<path d="M17130 3839 c0 -5 5 -7 10 -4 6 3 10 8 10 11 0 2 -4 4 -10 4 -5 0
-10 -5 -10 -11z"/>
<path d="M17111 3793 c-10 -26 -10 -27 4 -9 8 11 15 23 15 28 0 15 -7 8 -19
-19z"/>
<path d="M17076 3689 c-9 -39 -15 -73 -13 -76 3 -2 12 28 22 67 10 39 15 73
12 76 -3 3 -12 -27 -21 -67z"/>
<path d="M18730 3686 c-30 -7 -65 -18 -77 -25 -13 -6 -23 -9 -23 -6 0 3 -13
-1 -30 -10 -51 -27 -33 -25 53 6 45 16 96 29 112 30 17 0 39 4 50 9 18 8 18 9
-5 8 -14 0 -50 -6 -80 -12z"/>
<path d="M18888 3683 c7 -3 16 -2 19 1 4 3 -2 6 -13 5 -11 0 -14 -3 -6 -6z"/>
<path d="M18505 3610 c-27 -11 -63 -19 -78 -20 -53 0 -69 -16 -62 -63 10 -67
23 -110 47 -147 12 -19 22 -37 23 -40 2 -15 39 -60 49 -60 6 0 17 -9 24 -21 9
-13 19 -18 30 -14 9 3 13 3 9 -1 -9 -9 52 -36 64 -28 5 3 9 0 9 -7 0 -20 168
-7 208 16 38 23 38 28 12 103 -49 139 -140 221 -285 257 -47 12 -48 13 -22 20
15 4 27 11 27 16 0 5 -1 9 -2 8 -2 0 -25 -9 -53 -19z"/>
<path d="M17052 3545 c0 -16 2 -22 5 -12 2 9 2 23 0 30 -3 6 -5 -1 -5 -18z"/>
<path d="M17052 3470 c0 -19 2 -27 5 -17 2 9 2 25 0 35 -3 9 -5 1 -5 -18z"/>
<path d="M16763 3395 c0 -27 2 -38 4 -22 2 15 2 37 0 50 -2 12 -4 0 -4 -28z"/>
<path d="M17053 3385 c0 -22 2 -30 4 -17 2 12 2 30 0 40 -3 9 -5 -1 -4 -23z"/>
<path d="M19181 3344 c0 -11 3 -14 6 -6 3 7 2 16 -1 19 -3 4 -6 -2 -5 -13z"/>
<path d="M17062 3290 c0 -14 2 -19 5 -12 2 6 2 18 0 25 -3 6 -5 1 -5 -13z"/>
<path d="M16741 3234 c0 -11 3 -14 6 -6 3 7 2 16 -1 19 -3 4 -6 -2 -5 -13z"/>
<path d="M17071 3204 c0 -11 3 -14 6 -6 3 7 2 16 -1 19 -3 4 -6 -2 -5 -13z"/>
<path d="M16254 3040 c0 -58 1 -81 3 -52 2 28 2 76 0 105 -2 28 -3 5 -3 -53z"/>
<path d="M18164 2571 c18 -20 18 -22 0 -58 -14 -28 -19 -61 -19 -123 0 -73 4
-93 26 -135 15 -30 32 -49 42 -49 9 1 13 -4 10 -12 -12 -32 124 -105 220 -118
34 -4 39 -2 48 22 6 14 8 34 6 44 -3 11 -1 15 5 12 7 -5 9 21 5 79 -4 64 -12
99 -32 140 -32 64 -83 121 -131 143 -19 9 -32 20 -29 24 2 4 -21 10 -53 14
-31 4 -71 13 -87 22 -29 15 -29 15 -11 -5z"/>
<path d="M18448 2553 c6 -2 18 -2 25 0 6 3 1 5 -13 5 -14 0 -19 -2 -12 -5z"/>
<path d="M18498 2553 c6 -2 18 -2 25 0 6 3 1 5 -13 5 -14 0 -19 -2 -12 -5z"/>
<path d="M18373 2543 c9 -2 25 -2 35 0 9 3 1 5 -18 5 -19 0 -27 -2 -17 -5z"/>
</g>
</svg>
